<svg width="235" height="29" viewBox="0 0 235 29" fill="none" xmlns="http://www.w3.org/2000/svg">
<path d="M6.6754 8.28694H2V2H19.4724V5.10436L18.2272 8.28694H14.4832V27H6.6754V8.28694ZM32.1623 8.28694H29.0632V12.9616H32.1623V8.28694ZM21.254 2H36.871C37.7763 2 38.5196 2.29407 39.0995 2.88075C39.6808 3.46164 39.9701 4.20333 39.9701 5.10436V14.9317C39.9701 15.5242 39.7734 16.1007 39.3786 16.6584C38.9896 17.2161 38.4993 17.5797 37.9079 17.7478L40.362 23.8956V27H32.7364L30.6294 19.2138H29.0632V27H21.254V2ZM50.634 15.7168H52.9145L52.2016 8.28694H51.3484L50.634 15.7168ZM45.2803 2H58.2609L61.7592 23.8956V27H53.9514L53.4814 21.9603H50.0598L49.5638 27H41.7893V23.8956L45.2803 2ZM75.8042 13.5714H76.4492L75.4123 5.10436V2H82.6126V27H74.3421L70.6689 15.4633H70.0586L71.0594 23.8956V27H63.8951V2H72.1657L75.8042 13.5714ZM86.8585 14.6086C85.9995 14.0104 85.4341 13.4034 85.1607 12.7863C84.8889 12.1649 84.7515 11.3536 84.7515 10.3541V5.10436C84.7515 4.20333 85.0422 3.46164 85.6221 2.88075C86.2092 2.29407 86.9626 2 87.8853 2H101.44V5.06959L100.23 8.28694H92.5607V9.42989L99.333 13.964C100.192 14.5333 100.759 15.1359 101.031 15.769C101.304 16.3962 101.44 17.2103 101.44 18.2113V23.8956C101.44 24.7967 101.146 25.5413 100.561 26.1279C99.9809 26.7103 99.2376 27 98.3323 27H84.7515V20.7478H93.6308V19.1095L86.8585 14.6086ZM111.387 18.5677V27H103.577V2H120.266V5.10436L119.056 8.28694H111.387V12.3242H119.056V18.5677H111.387ZM132.954 8.28694H129.855V20.7478H132.954V8.28694ZM137.628 27H125.18C124.257 27 123.502 26.7103 122.917 26.1279C122.337 25.5413 122.046 24.7967 122.046 23.8956V5.10436C122.046 4.20333 122.337 3.46164 122.917 2.88075C123.502 2.29407 124.257 2 125.18 2H137.628C138.557 2 139.312 2.29407 139.892 2.88075C140.473 3.46164 140.762 4.20333 140.762 5.10436V23.8956C140.762 24.7967 140.473 25.5413 139.892 26.1279C139.312 26.7103 138.557 27 137.628 27ZM154.524 8.28694H151.425V12.9616H154.524V8.28694ZM143.617 2H159.234C160.139 2 160.883 2.29407 161.462 2.88075C162.042 3.46164 162.333 4.20333 162.333 5.10436V14.9317C162.333 15.5242 162.136 16.1007 161.742 16.6584C161.353 17.2161 160.862 17.5797 160.269 17.7478L162.725 23.8956V27H155.099L152.992 19.2138H151.425V27H143.617V2ZM174.311 27L172.387 15.0012H171.778V27H164.152V23.8956L166.721 2H175.416L177.306 11.8534H177.846L179.735 2H188.466L191 23.8956V27H183.408V15.0012H182.764L180.841 27H174.311Z" stroke="#F7F6F4" stroke-width="3"/>
<path d="M200.828 17.3219V20.7478H203.936V17.3219H200.828ZM203.936 11.0683V8.28694H200.828V11.0683H203.936ZM208.623 27H193V2H208.623C209.554 2 210.311 2.29407 210.892 2.88075C211.474 3.46164 211.765 4.20333 211.765 5.10436V10.8597C211.765 11.7607 211.442 12.4879 210.797 13.0398C210.156 13.5859 209.409 13.8597 208.554 13.8597V14.5304C209.409 14.5304 210.156 14.8071 210.797 15.359C211.442 15.9051 211.765 16.6439 211.765 17.5739V23.8956C211.765 24.7967 211.474 25.5413 210.892 26.1279C210.311 26.7103 209.554 27 208.623 27ZM222.063 8.28694V20.7478H225.205V8.28694H222.063ZM229.893 27H214.269V2H229.893C230.795 2 231.537 2.29407 232.118 2.88075C232.706 3.46164 233 4.20333 233 5.10436V23.8956C233 24.7967 232.706 25.5413 232.118 26.1279C231.537 26.7103 230.795 27 229.893 27Z" stroke="#F7F6F4" stroke-width="3"/>
<path d="M6.66964 8.27531H2.0022V2H19.469V5.10006L18.2197 8.27531H14.4776V26.9566H6.66964V8.27531Z" fill="black"/>
<path d="M32.1602 8.27531H29.0544V12.9485H32.1602V8.27531ZM21.2522 2H36.8624C37.7675 2 38.5122 2.29208 39.0949 2.87334C39.6762 3.45605 39.9682 4.1978 39.9682 5.10006V14.9092C39.9682 15.5035 39.7716 16.0804 39.3783 16.6385C38.985 17.1938 38.4905 17.5567 37.8977 17.7259L40.3557 23.8566V26.9566H32.727L30.6276 19.1834H29.0544V26.9566H21.2522V2Z" fill="black"/>
<path d="M50.6243 15.69H52.9031L52.1917 8.27531H51.3357L50.6243 15.69ZM45.2744 2H58.253L61.7463 23.8566V26.9566H53.9383L53.4756 21.9306H50.0517L49.5543 26.9566H41.781V23.8566L45.2744 2Z" fill="black"/>
<path d="M75.7898 13.55H76.4318L75.4023 5.10006V2H82.603V26.9566H74.3323L70.6597 15.4413H70.0524L71.053 23.8566V26.9566H63.887V2H72.1576L75.7898 13.55Z" fill="black"/>
<path d="M86.842 14.5853C85.986 13.9925 85.4206 13.3866 85.1473 12.7692C84.8726 12.1489 84.7367 11.3407 84.7367 10.3459V5.10006C84.7367 4.1978 85.0273 3.45605 85.61 2.87334C86.1913 2.29208 86.9475 2 87.8772 2H101.423V5.06536L100.208 8.27531H92.5447V9.4147L99.3174 13.9433C100.173 14.5145 100.737 15.116 101.012 15.7478C101.285 16.3768 101.423 17.1909 101.423 18.1886V23.8566C101.423 24.7588 101.131 25.502 100.549 26.0833C99.9666 26.666 99.2249 26.9566 98.3226 26.9566H84.7367V20.716H93.6147V19.0793L86.842 14.5853Z" fill="black"/>
<path d="M111.365 18.5414V26.9566H103.563V2H120.243V5.10006L119.034 8.27531H111.365V12.3065H119.034V18.5414H111.365Z" fill="black"/>
<path d="M132.937 8.27531H129.831V20.716H132.937V8.27531ZM137.604 26.9566H125.163C124.238 26.9566 123.483 26.666 122.902 26.0833C122.319 25.502 122.029 24.7588 122.029 23.8566V5.10006C122.029 4.1978 122.319 3.45605 122.902 2.87334C123.483 2.29208 124.238 2 125.163 2H137.604C138.532 2 139.289 2.29208 139.871 2.87334C140.453 3.45605 140.745 4.1978 140.745 5.10006V23.8566C140.745 24.7588 140.453 25.502 139.871 26.0833C139.289 26.666 138.532 26.9566 137.604 26.9566Z" fill="black"/>
<path d="M154.504 8.27531H151.398V12.9485H154.504V8.27531ZM143.595 2H159.206C160.111 2 160.855 2.29208 161.438 2.87334C162.019 3.45605 162.311 4.1978 162.311 5.10006V14.9092C162.311 15.5035 162.115 16.0804 161.722 16.6385C161.328 17.1938 160.834 17.5567 160.241 17.7259L162.699 23.8566V26.9566H155.07L152.971 19.1834H151.398V26.9566H143.595V2Z" fill="black"/>
<path d="M174.286 26.9566L172.36 14.9786H171.753V26.9566H164.124V23.8566L166.692 2H175.391L177.282 11.8381H177.814L179.706 2H188.439L190.972 23.8566V26.9566H183.378V14.9786H182.736L180.81 26.9566H174.286Z" fill="black"/>
<path d="M200.916 17.2979V20.716H204.022V17.2979H200.916ZM204.022 11.0573V8.27531H200.916V11.0573H204.022ZM208.689 26.9566H193.114V2H208.689C209.618 2 210.374 2.29208 210.957 2.87334C211.538 3.45605 211.83 4.1978 211.83 5.10006V10.8433C211.83 11.7455 211.507 12.4714 210.864 13.0179C210.224 13.5659 209.476 13.8392 208.62 13.8392V14.5159C209.476 14.5159 210.224 14.7906 210.864 15.3372C211.507 15.8809 211.83 16.6183 211.83 17.5466V23.8566C211.83 24.7588 211.538 25.502 210.957 26.0833C210.374 26.666 209.618 26.9566 208.689 26.9566Z" fill="#E81C24"/>
<path d="M222.092 8.27531V20.716H225.232V8.27531H222.092ZM229.9 26.9566H214.324V2H229.9C230.802 2 231.544 2.29208 232.127 2.87334C232.708 3.45605 233 4.1978 233 5.10006V23.8566C233 24.7588 232.708 25.502 232.127 26.0833C231.544 26.666 230.802 26.9566 229.9 26.9566Z" fill="#E81C24"/>
</svg>
