<svg width="28" height="29" viewBox="0 0 28 29" fill="none" xmlns="http://www.w3.org/2000/svg">
<rect y="0.5" width="28" height="28" rx="14" fill="#0B90E3"/>
<g clip-path="url(#clip0_607_1190)">
<path d="M19.8766 16.6894C19.0195 16.6894 18.1779 16.5553 17.3804 16.2918C16.9896 16.1585 16.5092 16.2808 16.2707 16.5257L14.6965 17.7141C12.8709 16.7396 11.7464 15.6154 10.7852 13.8035L11.9386 12.2704C12.2382 11.9711 12.3457 11.534 12.2169 11.1238C11.9522 10.3221 11.8178 9.48093 11.8178 8.62343C11.8178 8.00396 11.3139 7.5 10.6944 7.5H8.12339C7.50396 7.5 7 8.00396 7 8.62339C7 15.7237 12.7764 21.5 19.8766 21.5C20.4961 21.5 21 20.996 21 20.3766V17.8127C21 17.1934 20.496 16.6894 19.8766 16.6894Z" fill="white"/>
</g>
<defs>
<clipPath id="clip0_607_1190">
<rect width="14" height="14" fill="white" transform="translate(7 7.5)"/>
</clipPath>
</defs>
</svg>
