<svg width="24" height="24" viewBox="0 0 24 24" fill="none" xmlns="http://www.w3.org/2000/svg">
<path d="M19.2036 12.1726C19.2036 11.6628 19.1622 11.1502 19.074 10.6486H11.9999V13.5367H16.0509C15.8828 14.4682 15.3427 15.2921 14.5518 15.8157V17.6897H16.9686C18.3879 16.3834 19.2036 14.4544 19.2036 12.1726Z" fill="white"/>
<path d="M11.9999 19.5C14.0226 19.5 15.7284 18.8359 16.9713 17.6894L14.5545 15.8155C13.8821 16.273 13.014 16.532 12.0026 16.532C10.046 16.532 8.38701 15.212 7.79175 13.4373H5.29776V15.3691C6.57094 17.9016 9.16414 19.5 11.9999 19.5Z" fill="white"/>
<path d="M7.78904 13.4378C7.47488 12.5064 7.47488 11.4977 7.78904 10.5663V8.63446H5.2978C4.23407 10.7537 4.23407 13.2504 5.2978 15.3696L7.78904 13.4378Z" fill="white"/>
<path d="M11.9999 7.4685C13.0691 7.45196 14.1025 7.85431 14.8769 8.59286L17.0182 6.45161C15.6623 5.17843 13.8628 4.47846 11.9999 4.50051C9.16414 4.50051 6.57094 6.09887 5.29776 8.6342L7.789 10.566C8.38149 8.78852 10.0432 7.4685 11.9999 7.4685Z" fill="white"/>
</svg>
