<svg width="448" height="52" viewBox="0 0 448 52" fill="none" xmlns="http://www.w3.org/2000/svg">
<path d="M11.2168 14.0709H2.23999V2H35.7869V7.96037L33.3963 14.0709H26.2076V50H11.2168V14.0709ZM60.1516 14.0709H54.2014V23.0462H60.1516V14.0709ZM39.2077 2H69.1923C70.9304 2 72.3576 2.56461 73.471 3.69104C74.5872 4.80635 75.1425 6.23039 75.1425 7.96037V26.8288C75.1425 27.9664 74.7649 29.0734 74.0069 30.1442C73.26 31.215 72.3187 31.9131 71.1831 32.2357L75.895 44.0396V50H61.2539L57.2084 35.0504H54.2014V50H39.2077V2ZM95.6172 28.3363H99.9959L98.627 14.0709H96.9888L95.6172 28.3363ZM85.3382 2H110.261L116.978 44.0396V50H101.987L101.084 40.3238H94.5149L93.5625 50H78.6355V44.0396L85.3382 2ZM143.944 24.2172H145.182L143.192 7.96037V2H157.016V50H141.137L134.084 27.8496H132.913L134.834 44.0396V50H121.079V2H136.958L143.944 24.2172ZM165.168 26.2086C163.519 25.0599 162.433 23.8945 161.909 22.7097C161.387 21.5165 161.123 19.959 161.123 18.0399V7.96037C161.123 6.23039 161.681 4.80635 162.794 3.69104C163.922 2.56461 165.368 2 167.14 2H193.165V7.89362L190.841 14.0709H176.117V16.2654L189.119 24.9709C190.769 26.064 191.857 27.221 192.379 28.4364C192.904 29.6407 193.165 31.2038 193.165 33.1257V44.0396C193.165 45.7696 192.601 47.1992 191.477 48.3256C190.363 49.4437 188.936 50 187.198 50H161.123V37.9958H178.171V34.8502L165.168 26.2086ZM212.262 33.8099V50H197.269V2H229.311V7.96037L226.987 14.0709H212.262V21.8225H226.987V33.8099H212.262ZM253.673 14.0709H247.722V37.9958H253.673V14.0709ZM262.647 50H238.746C236.974 50 235.525 49.4437 234.4 48.3256C233.287 47.1992 232.729 45.7696 232.729 44.0396V7.96037C232.729 6.23039 233.287 4.80635 234.4 3.69104C235.525 2.56461 236.974 2 238.746 2H262.647C264.429 2 265.879 2.56461 266.992 3.69104C268.108 4.80635 268.664 6.23039 268.664 7.96037V44.0396C268.664 45.7696 268.108 47.1992 266.992 48.3256C265.879 49.4437 264.429 50 262.647 50ZM295.086 14.0709H289.135V23.0462H295.086V14.0709ZM274.145 2H304.129C305.867 2 307.294 2.56461 308.408 3.69104C309.521 4.80635 310.079 6.23039 310.079 7.96037V26.8288C310.079 27.9664 309.702 29.0734 308.944 30.1442C308.197 31.215 307.256 31.9131 306.117 32.2357L310.832 44.0396V50H296.191L292.145 35.0504H289.135V50H274.145V2ZM333.078 50L329.382 26.9623H328.213V50H313.572V44.0396L318.504 2H335.199L338.828 20.9185H339.864L343.49 2H360.255L365.12 44.0396V50H350.543V26.9623H349.307L345.614 50H333.078Z" stroke="#F7F6F4" stroke-width="3"/>
<path d="M383.99 31.418V37.9958H389.956V31.418H383.99ZM389.956 19.4111V14.0709H383.99V19.4111H389.956ZM398.957 50H368.96V2H398.957C400.744 2 402.197 2.56461 403.314 3.69104C404.43 4.80635 404.989 6.23039 404.989 7.96037V19.0105C404.989 20.7405 404.369 22.1367 403.13 23.1964C401.899 24.245 400.466 24.7707 398.823 24.7707V26.0584C400.466 26.0584 401.899 26.5896 403.13 27.6493C404.369 28.6979 404.989 30.1163 404.989 31.902V44.0396C404.989 45.7696 404.43 47.1992 403.314 48.3256C402.197 49.4437 400.744 50 398.957 50ZM424.761 14.0709V37.9958H430.794V14.0709H424.761ZM439.794 50H409.797V2H439.794C441.526 2 442.951 2.56461 444.067 3.69104C445.195 4.80635 445.76 6.23039 445.76 7.96037V44.0396C445.76 45.7696 445.195 47.1992 444.067 48.3256C442.951 49.4437 441.526 50 439.794 50Z" stroke="#F7F6F4" stroke-width="3"/>
<path d="M11.2037 14.0486H2.24219V2H35.7784V7.95212L33.3798 14.0486H26.195V49.9168H11.2037V14.0486Z" fill="black"/>
<path d="M60.1458 14.0486H54.1826V23.0212H60.1458V14.0486ZM39.2024 2H69.174C70.9118 2 72.3416 2.56079 73.4604 3.67681C74.5764 4.79561 75.1372 6.21978 75.1372 7.95212V26.7857C75.1372 27.9267 74.7596 29.0344 74.0045 30.106C73.2494 31.172 72.2999 31.8689 71.1617 32.1937L75.8812 43.9646V49.9168H61.2341L57.2031 34.992H54.1826V49.9168H39.2024V2Z" fill="black"/>
<path d="M95.5987 28.2848H99.974L98.6081 14.0486H96.9646L95.5987 28.2848ZM85.3269 2H110.246L116.953 43.9646V49.9168H101.962L101.073 40.2668H94.4993L93.5443 49.9168H78.6196V43.9646L85.3269 2Z" fill="black"/>
<path d="M143.915 24.1761H145.148L143.171 7.95212V2H156.997V49.9168H141.117L134.066 27.8073H132.9L134.821 43.9646V49.9168H121.062V2H136.942L143.915 24.1761Z" fill="black"/>
<path d="M165.135 26.1638C163.492 25.0256 162.406 23.8624 161.882 22.6769C161.354 21.486 161.093 19.9341 161.093 18.0241V7.95212C161.093 6.21978 161.651 4.79561 162.77 3.67681C163.886 2.56079 165.338 2 167.123 2H193.13V7.88549L190.798 14.0486H176.085V16.2362L189.088 24.9312C190.732 26.0278 191.814 27.1827 192.342 28.3959C192.867 29.6035 193.13 31.1665 193.13 33.082V43.9646C193.13 45.697 192.57 47.1239 191.454 48.2399C190.335 49.3587 188.911 49.9168 187.178 49.9168H161.093V37.9348H178.139V34.7922L165.135 26.1638Z" fill="black"/>
<path d="M212.22 33.7594V49.9168H197.24V2H229.265V7.95212L226.945 14.0486H212.22V21.7886H226.945V33.7594H212.22Z" fill="black"/>
<path d="M253.638 14.0486H247.674V37.9348H253.638V14.0486ZM262.599 49.9168H238.713C236.936 49.9168 235.487 49.3587 234.371 48.2399C233.252 47.1239 232.694 45.697 232.694 43.9646V7.95212C232.694 6.21978 233.252 4.79561 234.371 3.67681C235.487 2.56079 236.936 2 238.713 2H262.599C264.381 2 265.833 2.56079 266.952 3.67681C268.068 4.79561 268.629 6.21978 268.629 7.95212V43.9646C268.629 45.697 268.068 47.1239 266.952 48.2399C265.833 49.3587 264.381 49.9168 262.599 49.9168Z" fill="black"/>
<path d="M295.047 14.0486H289.084V23.0212H295.047V14.0486ZM274.103 2H304.075C305.813 2 307.242 2.56079 308.361 3.67681C309.477 4.79561 310.038 6.21978 310.038 7.95212V26.7857C310.038 27.9267 309.661 29.0344 308.905 30.106C308.15 31.172 307.201 31.8689 306.063 32.1937L310.782 43.9646V49.9168H296.135L292.104 34.992H289.084V49.9168H274.103V2Z" fill="black"/>
<path d="M333.027 49.9168L329.329 26.9189H328.163V49.9168H313.516V43.9646L318.447 2H335.148L338.78 20.8891H339.801L343.432 2H360.201L365.064 43.9646V49.9168H350.484V26.9189H349.251L345.553 49.9168H333.027Z" fill="black"/>
<path d="M384.157 31.3719V37.9348H390.12V31.3719H384.157ZM390.12 19.3899V14.0486H384.157V19.3899H390.12ZM399.082 49.9168H369.177V2H399.082C400.864 2 402.316 2.56079 403.435 3.67681C404.551 4.79561 405.112 6.21978 405.112 7.95212V18.9791C405.112 20.7114 404.493 22.105 403.257 23.1544C402.027 24.2066 400.592 24.7313 398.949 24.7313V26.0306C400.592 26.0306 402.027 26.558 403.257 27.6074C404.493 28.6513 405.112 30.0671 405.112 31.8494V43.9646C405.112 45.697 404.551 47.1239 403.435 48.2399C402.316 49.3587 400.864 49.9168 399.082 49.9168Z" fill="#E81C24"/>
<path d="M424.816 14.0486V37.9348H430.846V14.0486H424.816ZM439.807 49.9168H409.902V2H439.807C441.539 2 442.964 2.56079 444.082 3.67681C445.198 4.79561 445.759 6.21978 445.759 7.95212V43.9646C445.759 45.697 445.198 47.1239 444.082 48.2399C442.964 49.3587 441.539 49.9168 439.807 49.9168Z" fill="#E81C24"/>
</svg>
